<?xml version="1.0" standalone="no"?>
<!DOCTYPE svg PUBLIC "-//W3C//DTD SVG 20010904//EN"
 "http://www.w3.org/TR/2001/REC-SVG-20010904/DTD/svg10.dtd">
<svg version="1.0" xmlns="http://www.w3.org/2000/svg"
 width="524.000000pt" height="524.000000pt" viewBox="0 0 524.000000 524.000000"
 preserveAspectRatio="xMidYMid meet">
<metadata>
Created by potrace 1.14, written by Peter Selinger 2001-2017
</metadata>
<g transform="translate(0.000000,524.000000) scale(0.100000,-0.100000)"
fill="#000000" stroke="none">
<path d="M612 5229 c-148 -25 -281 -96 -392 -208 -88 -90 -131 -158 -174 -278
l-31 -88 0 -2015 c0 -1924 1 -2018 18 -2080 60 -211 200 -375 402 -471 158
-74 10 -70 2215 -67 2214 3 2009 -4 2175 78 187 91 329 268 382 475 17 66 18
182 18 2060 0 2236 7 2032 -75 2200 -92 187 -254 320 -465 382 -57 17 -174 18
-2040 19 -1110 1 -2003 -2 -2033 -7z m852 -891 c15 -79 29 -155 32 -170 l6
-28 -201 0 -201 0 0 -215 0 -214 153 -3 152 -3 3 -157 3 -158 -156 0 -155 0 0
-370 0 -370 -190 0 -190 0 0 915 0 915 359 0 359 0 26 -142z m526 -607 c0
-674 2 -749 16 -755 9 -3 49 -6 89 -6 63 0 76 3 85 19 7 13 10 267 10 755 l0
736 185 0 185 0 0 -813 c0 -903 1 -888 -64 -953 -59 -59 -107 -66 -433 -62
-275 3 -290 4 -329 25 -50 27 -89 71 -106 121 -9 28 -13 233 -16 860 l-3 822
191 0 190 0 0 -749z m1165 396 l90 -352 3 353 2 352 190 0 190 0 0 -915 0
-915 -192 2 -191 3 -91 354 -91 354 -3 -357 -2 -356 -175 0 -175 0 0 915 0
915 178 0 177 0 90 -353z m1350 181 l31 -168 -181 0 c-127 0 -185 -4 -193 -12
-17 -17 -17 -1109 0 -1126 8 -8 65 -12 190 -12 166 0 178 -1 178 -18 0 -15
-36 -207 -56 -300 l-5 -23 -267 3 c-253 3 -269 4 -308 25 -53 28 -90 72 -106
126 -10 32 -13 210 -13 782 0 738 0 740 22 780 26 49 57 79 103 99 29 13 82
15 305 13 l269 -2 31 -167z m-3405 -2289 l0 -390 27 3 27 3 86 360 c48 198 89
372 93 388 l7 27 191 0 c177 0 190 -1 185 -17 -3 -10 -52 -200 -110 -423
l-105 -405 108 -490 108 -490 -200 -3 c-110 -1 -201 -1 -202 0 -2 2 -33 161
-69 353 -36 193 -68 360 -71 373 -4 18 -12 22 -40 22 l-35 0 0 -375 0 -375
-190 0 -190 0 0 915 0 915 190 0 190 0 0 -391z m1100 -354 l0 -745 186 0 186
0 -6 -27 c-3 -16 -17 -92 -32 -170 l-27 -143 -343 0 -344 0 0 915 0 915 190 0
190 0 0 -745z m1214 603 c15 -79 29 -155 32 -170 l6 -28 -201 0 -201 0 0 -215
0 -214 153 -3 152 -3 3 -157 3 -158 -156 0 -155 0 0 -200 0 -200 193 0 193 0
-31 -167 -31 -168 -352 -3 -352 -2 0 915 0 915 359 0 359 0 26 -142z m916 139
c0 -1 14 -77 30 -167 17 -90 30 -166 30 -167 0 -2 -96 -3 -214 -3 -182 0 -217
-2 -230 -16 -13 -13 -16 -45 -16 -190 0 -102 4 -183 10 -195 10 -17 23 -19
163 -19 84 0 168 -5 188 -10 42 -12 82 -52 98 -99 15 -45 15 -720 0 -790 -15
-70 -46 -112 -104 -141 -49 -25 -54 -25 -336 -28 l-285 -3 -28 148 c-15 81
-30 158 -33 170 l-5 23 213 2 214 3 0 205 0 205 -165 5 c-178 6 -208 14 -249
65 -37 48 -42 115 -39 487 l3 354 25 48 c14 27 37 58 51 68 57 43 90 47 392
48 158 0 287 -1 287 -3z"/>
</g>
</svg>
