<?xml version="1.0" encoding="utf-8"?>
<!-- Generator: Adobe Illustrator 26.0.0, SVG Export Plug-In . SVG Version: 6.00 Build 0)  -->
<svg version="1.1" id="Layer_1" xmlns="http://www.w3.org/2000/svg" xmlns:xlink="http://www.w3.org/1999/xlink" x="0px" y="0px"
	 viewBox="0 0 213.7 250" style="enable-background:new 0 0 213.7 250;" xml:space="preserve">
<style type="text/css">
	.st0{fill:#7F7F7F;}
	.st1{fill:#AFAFAF;}
</style>
<path class="st0" d="M10,0h193.7c5.5,0,10,4.5,10,10v230c0,5.5-4.5,10-10,10H10c-5.5,0-10-4.5-10-10V10C0,4.5,4.5,0,10,0z"/>
<path class="st1" d="M18.5,103.8h16.5l1.5,7.9h-9.2v10.1h7v7.3h-7v17.2h-8.7V103.8z"/>
<path class="st1" d="M45.8,146.2c-4.9,0-6.6-1.9-6.6-6.6v-35.9h8.7v34.1c0,0.6,0.1,0.9,0.8,0.9h3c0.7,0,0.8-0.3,0.8-0.9v-34.1h8.7
	v35.9c0,4.7-1.8,6.6-6.6,6.6H45.8z"/>
<path class="st1" d="M64.6,103.8h8.1l4.3,17v-17h8.7v42.5h-8.7l-4.6-17.8v17.8h-7.8V103.8z"/>
<path class="st1" d="M95.9,146.2c-4.9,0-6.6-1.9-6.6-6.6V109c0-3.3,2.2-5.2,5-5.2h11.2l1.5,7.9h-8.1c-0.6,0-0.8,0.3-0.8,0.8v25
	c0,0.5,0.2,0.8,0.8,0.8h8.1l-1.5,7.9L95.9,146.2z"/>
<path class="st1" d="M119.9,122l4.3-18.2h8.8l-5.1,19.6l5,22.9h-9.3l-3.3-17.5h-1.7v17.5h-8.7v-42.5h8.7V122H119.9z"/>
<path class="st1" d="M135.3,103.8h8.7v34.6h8.6l-1.5,7.9h-15.8V103.8z"/>
<path class="st1" d="M155.2,103.8h16.5l1.5,7.9h-9.2v10.1h7v7.3h-7v9.3h8.9l-1.5,7.9h-16.2V103.8z"/>
<path class="st1" d="M178.2,146.2l-1.5-7.9h9.2c0.8,0,1-0.2,1-0.9v-7.7c0-1.2-0.4-1.2-1.6-1.2h-4.4c-2.5,0-4.8-0.6-4.8-4.8v-14.4
	c0-3.3,1.8-5.5,5.7-5.5h11.7l1.5,7.9h-9.6c-0.7,0-1.1,0.3-1.1,0.9v7.7c0,0.9,0.4,1.1,1.3,1.1h5.3c2.7,0,4.2,1.2,4.2,4.3v14
	c0,4.7-1.6,6.4-6.5,6.4H178.2z"/>
</svg>
