<svg xmlns="http://www.w3.org/2000/svg" viewBox="0 0 250 250"><defs><style>.cls-1{fill:#7f7f7f;}.cls-2{fill:#afafaf;}</style></defs><g id="Layer_2" data-name="Layer 2"><g id="Layer_1-2" data-name="Layer 1"><rect class="cls-1" width="250" height="250"/><path class="cls-2" d="M36.66,103.76H53.18l1.46,7.91H45.39v10.08h7v7.32h-7v17.17H36.66Z"/><path class="cls-2" d="M63.9,146.24c-4.86,0-6.62-1.88-6.62-6.57V103.76H66v34.1c0,.64.12.94.82.94h3c.7,0,.82-.3.82-.94v-34.1h8.67v35.91c0,4.69-1.76,6.57-6.62,6.57Z"/><path class="cls-2" d="M82.76,103.76h8.09l4.33,17v-17h8.73v42.48H95.18l-4.57-17.75v17.75H82.76Z"/><path class="cls-2" d="M114.05,146.24c-4.87,0-6.62-1.88-6.62-6.57V109c0-3.34,2.16-5.22,5-5.22h11.19l1.47,7.91h-8.14c-.59,0-.77.3-.77.82v25c0,.52.18.82.77.82h8.14l-1.52,7.91Z"/><path class="cls-2" d="M138,122l4.33-18.22h8.79L146,123.33l5,22.91H141.7l-3.34-17.52h-1.7v17.52H128V103.76h8.67V122Z"/><path class="cls-2" d="M153.41,103.76h8.73v34.57h8.55l-1.46,7.91H153.41Z"/><path class="cls-2" d="M173.33,103.76h16.52l1.46,7.91h-9.25v10.08h7v7.32h-7v9.26H191l-1.46,7.91H173.33Z"/><path class="cls-2" d="M196.35,146.24l-1.52-7.91H204c.76,0,1-.24,1-.88v-7.73c0-1.18-.41-1.23-1.58-1.23H199c-2.52,0-4.75-.59-4.75-4.81V109.27c0-3.34,1.76-5.51,5.74-5.51H211.7l1.46,7.91h-9.6c-.71,0-1.06.3-1.06.94v7.73c0,.88.41,1.12,1.29,1.12h5.33c2.7,0,4.22,1.17,4.22,4.33v14c0,4.69-1.64,6.45-6.5,6.45Z"/></g></g></svg>